<svg xmlns="http://www.w3.org/2000/svg" viewBox="0 0 64 64">
  <defs>
    <linearGradient id="grad" x1="0%" y1="0%" x2="100%" y2="100%">
      <stop offset="0%" style="stop-color:#3b82f6;stop-opacity:1" />
      <stop offset="100%" style="stop-color:#8b5cf6;stop-opacity:1" />
    </linearGradient>
  </defs>
  <!-- Background rounded rectangle -->
  <rect x="4" y="4" width="56" height="56" rx="12" fill="url(#grad)"/>
  <!-- PDF document icon -->
  <path d="M20 14h16l10 10v26a2 2 0 0 1-2 2H20a2 2 0 0 1-2-2V16a2 2 0 0 1 2-2z" fill="white"/>
  <!-- Folded corner -->
  <path d="M36 14v10h10" fill="none" stroke="#e2e8f0" stroke-width="1"/>
  <path d="M36 14l10 10h-8a2 2 0 0 1-2-2v-8z" fill="#e2e8f0"/>
  <!-- Split/scissors lines -->
  <line x1="18" y1="36" x2="46" y2="36" stroke="#3b82f6" stroke-width="2" stroke-dasharray="4,2"/>
  <!-- PDF text -->
  <text x="32" y="30" font-family="Arial, sans-serif" font-size="8" font-weight="bold" fill="#3b82f6" text-anchor="middle">PDF</text>
</svg>
